<?xml version="1.0" encoding="UTF-8" standalone="no"?>
<svg
   xmlns:dc="http://purl.org/dc/elements/1.1/"
   xmlns:cc="http://creativecommons.org/ns#"
   xmlns:rdf="http://www.w3.org/1999/02/22-rdf-syntax-ns#"
   xmlns:svg="http://www.w3.org/2000/svg"
   xmlns="http://www.w3.org/2000/svg"
   id="svg2019"
   version="1.1"
   viewBox="0 0 51.064583 33.361851"
   height="33.361851mm"
   width="51.064583mm">
  <defs
     id="defs2013" />
  <metadata
     id="metadata2016">
    <rdf:RDF>
      <cc:Work
         rdf:about="">
        <dc:format>image/svg+xml</dc:format>
        <dc:type
           rdf:resource="http://purl.org/dc/dcmitype/StillImage" />
        <dc:title></dc:title>
      </cc:Work>
    </rdf:RDF>
  </metadata>
  <g
     transform="translate(-0.92202151,-0.95204234)"
     id="layer1">
    <path
       transform="scale(0.26458333)"
       id="path2060"
       d="m 337.49086,324.64659 0.13222,-19.48482 3.83223,-1.66581 c 2.10773,-0.9162 4.66569,-2.30152 5.68436,-3.0785 2.58203,-1.96941 5.27331,-5.79921 6.92179,-9.85 1.36551,-3.35546 1.38295,-3.5236 0.74593,-7.19195 -0.65181,-3.75352 -1.78976,-6.49673 -4.21561,-10.16244 -1.33525,-2.0177 -5.69719,-4.58639 -10.94839,-6.44738 l -2.52539,-0.89497 -0.13227,-19.23172 -0.13227,-19.23173 h 5.26042 c 4.73334,0 5.78259,0.18176 10.47174,1.81394 6.7048,2.33379 11.71838,4.7257 15.97887,7.6233 13.0808,8.89639 21.09292,20.94544 24.88125,37.41775 1.41841,6.16749 1.42762,6.31438 0.91939,14.66399 -0.46449,7.63079 -0.68262,8.91514 -2.29033,13.48485 -3.49624,9.93764 -7.98896,17.4959 -14.14638,23.79891 -10.3897,10.63536 -21.92312,16.06377 -37.40711,17.60632 l -3.16268,0.31507 z m 7.53468,16.6388 c 5.4503,-1.14651 13.88101,-4.08895 17.47922,-6.10052 13.35171,-7.46421 23.45119,-20.15709 27.86775,-35.0238 1.49794,-5.04227 1.54627,-5.51787 1.54627,-15.21791 V 274.9302 l -1.99956,-5.60542 c -5.49453,-15.40292 -14.16421,-26.1727 -26.73319,-33.20892 -6.01707,-3.36841 -17.80221,-7.14619 -22.40622,-7.18243 l -1.38896,-0.0109 v 17.31719 17.31718 l 5.42957,2.68043 5.42957,2.68042 3.08158,4.63456 c 2.80684,4.22138 3.13536,5.00243 3.68491,8.76079 0.65244,4.46211 0.22658,6.93735 -2.09749,12.1913 -2.46062,5.56264 -3.71111,6.81721 -9.83185,9.86395 l -5.69629,2.83546 v 13.14438 13.14438 l 1.38896,-0.3149 c 9.3756,-2.12557 11.51905,-2.85611 19.43334,-6.62328 3.81299,-1.81497 7.27908,-3.16704 7.70242,-3.00458 0.45532,0.17472 0.7697,0.92072 0.7697,1.82644 0,1.19436 -0.22215,1.53108 -1.01015,1.53108 -0.55559,0 -1.89099,0.88084 -2.96757,1.95742 -2.42179,2.42178 -9.81609,5.42166 -18.24563,7.40227 -3.19461,0.75061 -6.09249,1.44474 -6.43973,1.54251 -0.37127,0.10454 -0.63134,1.01653 -0.63134,2.21393 0,2.39494 0.12044,2.42192 5.63469,1.26196 z"
       style="opacity:0;fill:#000000;stroke:#00ff00;stroke-width:1.07856;stroke-linecap:square" />
    <path
       transform="scale(0.26458333)"
       id="path2062"
       d="m 207.06086,285.63929 v -61.26247 l 65.78619,0.0102 65.78618,0.0102 7.82869,1.43024 c 7.73269,1.41269 7.93396,1.4833 16.41497,5.75845 l 8.5863,4.32823 7.12909,7.23704 c 6.56803,6.6675 7.39568,7.72362 10.51669,13.41983 2.97379,5.42749 3.65579,7.21003 5.58287,14.59182 l 2.19524,8.40903 -0.48577,8.64169 c -0.44108,7.8467 -0.64983,9.12957 -2.26926,13.94499 -6.98284,20.76381 -21.14617,34.70581 -42.62968,41.96349 l -4.78792,1.61749 -19.69797,0.39486 c -10.83389,0.21717 -42.25595,0.47867 -69.8268,0.58111 l -50.12882,0.18626 z m 127.7843,-0.14824 v -59.599 h -63.13453 -63.13454 v 59.599 59.599 h 63.13454 63.13453 z m 12.37437,57.99467 c 10.26932,-1.58401 20.75159,-6.97218 29.21053,-15.01499 7.45162,-7.08506 12.57098,-15.25911 16.1628,-25.80709 1.64117,-4.81957 1.85163,-6.08648 2.30741,-13.8896 0.48377,-8.28247 0.4574,-8.77395 -0.74523,-13.8896 -1.7281,-7.35081 -3.03735,-11.16769 -5.54396,-16.16244 -7.29063,-14.52749 -18.87038,-24.25538 -35.55952,-29.87274 -5.29419,-1.78196 -6.24714,-1.94706 -11.23794,-1.94706 h -5.45323 v 19.62935 19.62936 l 2.39911,0.90087 c 1.31951,0.49548 4.16712,1.78226 6.32802,2.8595 3.36592,1.67797 4.18012,2.35135 5.6821,4.69932 2.66852,4.17156 2.10726,4.30476 -1.53993,0.36545 -3.78778,-4.09115 -7.38284,-6.16252 -10.69562,-6.16252 h -2.17368 v 16.66752 16.66751 h 2.17368 c 3.25728,0 6.92461,-2.07939 10.44706,-5.92353 3.42769,-3.74072 4.07426,-3.5611 1.03262,0.28686 -2.45435,3.10498 -5.56808,5.30167 -9.73534,6.86811 l -3.16041,1.18798 -0.1321,20.04432 -0.1321,20.04432 3.4151,-0.31778 c 1.8783,-0.17478 5.00609,-0.56318 6.95063,-0.86312 z"
       style="opacity:0;fill:#000000;stroke:#00ff00;stroke-width:1.07856;stroke-linecap:square" />
    <path
       transform="scale(0.26458333)"
       id="path2104"
       d="m 205.26639,348.59794 -1.23598,-1.29033 V 285.3738 223.43998 l 1.38896,-1.11088 1.38896,-1.11088 68.83848,0.35863 68.83848,0.35864 4.90265,1.41528 c 6.40502,1.84898 10.2074,3.32572 17.27703,6.70993 5.79074,2.77201 5.83241,2.80479 13.72526,10.79638 7.76232,7.85943 7.97565,8.13427 10.9264,14.07685 3.29172,6.62926 4.93786,10.90705 6.66996,17.33307 1.04553,3.87888 1.11154,4.94414 0.86058,13.88959 -0.36779,13.11019 -1.39549,17.05101 -8.12449,31.15426 -2.17828,4.56545 -2.67649,5.18073 -10.26934,12.68273 -7.93906,7.84406 -8.01239,7.90035 -14.29345,10.97258 -3.4724,1.69843 -9.49543,4.15705 -13.38452,5.46359 l -7.07107,2.37552 -21.71828,0.39772 c -11.94505,0.21875 -43.26549,0.46243 -69.60096,0.5415 l -47.88269,0.14378 z m 85.63714,-1.71353 54.29569,-0.23134 5.71929,-1.82136 c 7.64556,-2.4348 12.47196,-4.69462 18.26932,-8.55408 12.21347,-8.13084 20.459,-19.03249 25.42413,-33.61399 1.66534,-4.89073 1.84355,-5.99637 2.29077,-14.21215 l 0.48494,-8.90884 -2.14771,-8.51629 c -1.9798,-7.85051 -2.43409,-9.02959 -5.81101,-15.08228 -3.37538,-6.04993 -4.20551,-7.11495 -10.56199,-13.55059 l -6.89869,-6.98459 -8.51267,-4.28252 c -8.45461,-4.2533 -8.56815,-4.29264 -16.64826,-5.76857 l -8.1356,-1.48607 h -66.05798 -66.05797 v 61.83429 61.83429 l 15.02602,-0.21229 c 8.26431,-0.11675 39.45908,-0.31639 69.32172,-0.44362 z"
       style="opacity:0;fill:#000000;stroke:#00ff00;stroke-width:1.07856;stroke-linecap:square" />
    <path
       transform="scale(0.26458333)"
       id="path2106"
       d=""
       style="opacity:0;fill:#000000;stroke:#00ff00;stroke-width:1.07856;stroke-linecap:square" />
    <path
       transform="scale(0.26458333)"
       id="path2108"
       d="m 207.06086,285.63929 v -61.26247 l 65.78619,0.0102 65.78618,0.0102 7.82869,1.43024 c 7.73269,1.41269 7.93396,1.4833 16.41497,5.75845 l 8.5863,4.32823 7.12909,7.23704 c 6.56803,6.6675 7.39568,7.72362 10.51669,13.41983 2.97379,5.42749 3.65579,7.21003 5.58287,14.59182 l 2.19524,8.40903 -0.48577,8.64169 c -0.44108,7.8467 -0.64983,9.12957 -2.26926,13.94499 -6.98284,20.76381 -21.14617,34.70581 -42.62968,41.96349 l -4.78792,1.61749 -19.69797,0.39486 c -10.83389,0.21717 -42.25595,0.47867 -69.8268,0.58111 l -50.12882,0.18626 z m 127.7843,-0.14824 v -59.599 h -63.13453 -63.13454 v 59.599 59.599 h 63.13454 63.13453 z m 12.37437,57.99467 c 10.26932,-1.58401 20.75159,-6.97218 29.21053,-15.01499 7.45162,-7.08506 12.57098,-15.25911 16.1628,-25.80709 1.64117,-4.81957 1.85163,-6.08648 2.30741,-13.8896 0.48377,-8.28247 0.4574,-8.77395 -0.74523,-13.8896 -1.7281,-7.35081 -3.03735,-11.16769 -5.54396,-16.16244 -7.29063,-14.52749 -18.87038,-24.25538 -35.55952,-29.87274 -5.29419,-1.78196 -6.24714,-1.94706 -11.23794,-1.94706 h -5.45323 v 19.62935 19.62936 l 2.39911,0.90087 c 1.31951,0.49548 4.16712,1.78226 6.32802,2.8595 3.36592,1.67797 4.18012,2.35135 5.6821,4.69932 2.66852,4.17156 2.10726,4.30476 -1.53993,0.36545 -3.78778,-4.09115 -7.38284,-6.16252 -10.69562,-6.16252 h -2.17368 v 16.66752 16.66751 h 2.17368 c 3.25728,0 6.92461,-2.07939 10.44706,-5.92353 3.42769,-3.74072 4.07426,-3.5611 1.03262,0.28686 -2.45435,3.10498 -5.56808,5.30167 -9.73534,6.86811 l -3.16041,1.18798 -0.1321,20.04432 -0.1321,20.04432 3.4151,-0.31778 c 1.8783,-0.17478 5.00609,-0.56318 6.95063,-0.86312 z"
       style="opacity:0;fill:#000000;stroke:#00ff00;stroke-width:1.07856;stroke-linecap:square" />
    <path
       transform="scale(0.26458333)"
       id="path2110"
       d=""
       style="opacity:0;fill:#000000;stroke:#00ff00;stroke-width:1.07856;stroke-linecap:square" />
    <path
       transform="scale(0.26458333)"
       id="path2112"
       d="m 207.06086,285.63929 v -61.26247 l 65.78619,0.0102 65.78618,0.0102 7.82869,1.43024 c 7.73269,1.41269 7.93396,1.4833 16.41497,5.75845 l 8.5863,4.32823 7.12909,7.23704 c 6.56803,6.6675 7.39568,7.72362 10.51669,13.41983 2.97379,5.42749 3.65579,7.21003 5.58287,14.59182 l 2.19524,8.40903 -0.48577,8.64169 c -0.44108,7.8467 -0.64983,9.12957 -2.26926,13.94499 -6.98284,20.76381 -21.14617,34.70581 -42.62968,41.96349 l -4.78792,1.61749 -19.69797,0.39486 c -10.83389,0.21717 -42.25595,0.47867 -69.8268,0.58111 l -50.12882,0.18626 z m 127.7843,-0.14824 v -59.599 h -63.13453 -63.13454 v 59.599 59.599 h 63.13454 63.13453 z m 12.37437,57.99467 c 10.26932,-1.58401 20.75159,-6.97218 29.21053,-15.01499 7.45162,-7.08506 12.57098,-15.25911 16.1628,-25.80709 1.64117,-4.81957 1.85163,-6.08648 2.30741,-13.8896 0.48377,-8.28247 0.4574,-8.77395 -0.74523,-13.8896 -1.7281,-7.35081 -3.03735,-11.16769 -5.54396,-16.16244 -7.29063,-14.52749 -18.87038,-24.25538 -35.55952,-29.87274 -5.29419,-1.78196 -6.24714,-1.94706 -11.23794,-1.94706 h -5.45323 v 19.62935 19.62936 l 2.39911,0.90087 c 1.31951,0.49548 4.16712,1.78226 6.32802,2.8595 3.36592,1.67797 4.18012,2.35135 5.6821,4.69932 2.66852,4.17156 2.10726,4.30476 -1.53993,0.36545 -3.78778,-4.09115 -7.38284,-6.16252 -10.69562,-6.16252 h -2.17368 v 16.66752 16.66751 h 2.17368 c 3.25728,0 6.92461,-2.07939 10.44706,-5.92353 3.42769,-3.74072 4.07426,-3.5611 1.03262,0.28686 -2.45435,3.10498 -5.56808,5.30167 -9.73534,6.86811 l -3.16041,1.18798 -0.1321,20.04432 -0.1321,20.04432 3.4151,-0.31778 c 1.8783,-0.17478 5.00609,-0.56318 6.95063,-0.86312 z"
       style="opacity:0;fill:#000000;stroke:#00ff00;stroke-width:1.07856;stroke-linecap:square" />
    <path
       transform="scale(0.26458333)"
       id="path2114"
       d="m 337.49086,324.64659 0.13222,-19.48482 3.83223,-1.66581 c 2.10773,-0.9162 4.66569,-2.30152 5.68436,-3.0785 2.58203,-1.96941 5.27331,-5.79921 6.92179,-9.85 1.36551,-3.35546 1.38295,-3.5236 0.74593,-7.19195 -0.65181,-3.75352 -1.78976,-6.49673 -4.21561,-10.16244 -1.33525,-2.0177 -5.69719,-4.58639 -10.94839,-6.44738 l -2.52539,-0.89497 -0.13227,-19.23172 -0.13227,-19.23173 h 5.26042 c 4.73334,0 5.78259,0.18176 10.47174,1.81394 6.7048,2.33379 11.71838,4.7257 15.97887,7.6233 13.0808,8.89639 21.09292,20.94544 24.88125,37.41775 1.41841,6.16749 1.42762,6.31438 0.91939,14.66399 -0.46449,7.63079 -0.68262,8.91514 -2.29033,13.48485 -3.49624,9.93764 -7.98896,17.4959 -14.14638,23.79891 -10.3897,10.63536 -21.92312,16.06377 -37.40711,17.60632 l -3.16268,0.31507 z m 7.53468,16.6388 c 5.4503,-1.14651 13.88101,-4.08895 17.47922,-6.10052 13.35171,-7.46421 23.45119,-20.15709 27.86775,-35.0238 1.49794,-5.04227 1.54627,-5.51787 1.54627,-15.21791 V 274.9302 l -1.99956,-5.60542 c -5.49453,-15.40292 -14.16421,-26.1727 -26.73319,-33.20892 -6.01707,-3.36841 -17.80221,-7.14619 -22.40622,-7.18243 l -1.38896,-0.0109 v 17.31719 17.31718 l 5.42957,2.68043 5.42957,2.68042 3.08158,4.63456 c 2.80684,4.22138 3.13536,5.00243 3.68491,8.76079 0.65244,4.46211 0.22658,6.93735 -2.09749,12.1913 -2.46062,5.56264 -3.71111,6.81721 -9.83185,9.86395 l -5.69629,2.83546 v 13.14438 13.14438 l 1.38896,-0.3149 c 9.3756,-2.12557 11.51905,-2.85611 19.43334,-6.62328 3.81299,-1.81497 7.27908,-3.16704 7.70242,-3.00458 0.45532,0.17472 0.7697,0.92072 0.7697,1.82644 0,1.19436 -0.22215,1.53108 -1.01015,1.53108 -0.55559,0 -1.89099,0.88084 -2.96757,1.95742 -2.42179,2.42178 -9.81609,5.42166 -18.24563,7.40227 -3.19461,0.75061 -6.09249,1.44474 -6.43973,1.54251 -0.37127,0.10454 -0.63134,1.01653 -0.63134,2.21393 0,2.39494 0.12044,2.42192 5.63469,1.26196 z"
       style="opacity:0;fill:#000000;stroke:#00ff00;stroke-width:1.07856;stroke-linecap:square" />
    <path
       transform="scale(0.26458333)"
       id="path2116"
       d="m 339.9855,340.00573 c 0.16152,-1.65968 0.19927,-1.68241 4.27296,-2.57194 11.16927,-2.43894 21.90143,-7.01675 21.90143,-9.34208 0,-0.4181 0.58268,-0.67933 1.51523,-0.67933 1.37436,0 1.51451,-0.15261 1.50749,-1.6415 -0.013,-2.75838 -0.56858,-3.19406 -3.10433,-2.43434 -1.19972,0.35945 -4.6631,1.89821 -7.69639,3.41946 -3.83022,1.92092 -7.49639,3.27937 -12.00052,4.44662 l -6.48545,1.6807 v -12.58024 -12.58024 l 5.51943,-2.76809 c 6.91838,-3.4697 8.7277,-5.73486 11.63186,-14.56236 1.05262,-3.19956 1.08866,-3.73066 0.53128,-7.82868 -0.56383,-4.14552 -0.78473,-4.67999 -3.87287,-9.37052 l -3.27494,-4.97425 -5.26738,-2.46586 -5.26738,-2.46585 v -16.98718 -16.98717 l 2.39912,0.35907 c 9.03322,1.35199 19.8063,5.76255 26.64277,10.90769 9.9166,7.46326 16.25707,16.61337 20.77751,29.98463 1.68635,4.98812 1.69838,5.09017 1.69838,14.39822 0,8.28818 -0.1376,9.87157 -1.18751,13.66409 -4.49786,16.24739 -15.80337,30.09318 -30.29903,37.10703 -4.54613,2.19969 -13.1041,4.89681 -17.74654,5.59299 l -2.35807,0.35361 z m 22.52647,-20.45067 c 0.6174,-0.43244 1.12254,-1.23227 1.12254,-1.7774 0,-0.78186 0.24514,-0.92961 1.16104,-0.69973 0.99419,0.24953 1.60874,-0.31 4.27634,-3.89344 3.90951,-5.25172 7.22331,-11.91099 8.97472,-18.03519 1.34403,-4.69973 1.35023,-4.79642 0.80082,-12.47857 -0.5215,-7.292 -0.66885,-8.00927 -2.5343,-12.33622 -2.57611,-5.97534 -4.72789,-9.49353 -8.07349,-13.20029 -2.35066,-2.60441 -2.9303,-2.9912 -4.28403,-2.85865 -1.15523,0.11311 -1.68438,0.49344 -2.01894,1.45113 -0.39453,1.12938 -0.0584,1.83062 2.58979,5.40217 3.90114,5.26147 5.73214,8.48699 7.6586,13.49152 1.44041,3.74188 1.55097,4.48961 1.55097,10.48953 0,6.13299 -0.0851,6.67468 -1.67836,10.68773 -2.80835,7.0734 -9.71346,18.0594 -11.84504,18.8454 -1.18815,0.43812 -1.61201,1.15921 -1.62115,2.75799 -0.008,1.40651 1.13372,2.94027 2.1888,2.94027 0.33504,0 1.1143,-0.35382 1.73169,-0.78625 z m -2.00438,-12.67187 c 0.88261,-0.23639 1.95741,-1.89122 4.41942,-6.80443 l 3.25318,-6.49207 v -7.33813 c 0,-7.14789 -0.0437,-7.44659 -1.68716,-11.52223 -2.72051,-6.74674 -7.88988,-13.98402 -9.98836,-13.98402 -1.12284,0 -2.97169,1.70918 -2.97169,2.7472 0,0.39979 0.94666,1.82032 2.10369,3.15673 2.75785,3.1854 5.71288,9.42423 7.07121,14.92908 l 1.09014,4.41802 -1.09365,4.16827 c -0.6015,2.29255 -2.22928,6.37067 -3.61729,9.06248 -1.41202,2.7384 -2.52364,5.575 -2.52364,6.43973 0,1.35096 0.17484,1.54464 1.38896,1.53861 0.76393,-0.004 1.91376,-0.14745 2.55519,-0.31924 z"
       style="opacity:0;fill:#000000;stroke:#00ff00;stroke-width:1.07856;stroke-linecap:square" />
    <path
       transform="scale(0.26458333)"
       id="path2118"
       d="m 211.10147,285.23851 v -56.82108 h 60.35662 60.35661 v 56.82108 56.82108 h -60.35661 -60.35662 z m 67.30142,25.67813 7.95495,-0.32993 v -3.20392 -3.20392 h -7.49629 c -4.12296,0 -10.54374,-0.1417 -14.2684,-0.31488 l -6.77212,-0.31487 -1.21684,2.27055 -1.21683,2.27054 1.12496,1.57987 1.12496,1.57986 6.40532,-0.002 c 3.52294,-0.001 9.98506,-0.15015 14.36029,-0.33161 z m 24.06798,-10.34867 c 0.78326,-2.24686 0.67822,-3.03222 -0.5979,-4.47032 l -1.12046,-1.26269 -29.54696,0.1585 -29.54696,0.1585 -0.87265,1.10419 c -0.87467,1.10673 -1.16295,3.6066 -0.58854,5.10349 0.2749,0.71639 3.47866,0.79892 31.01278,0.79892 h 30.7062 z m 0.54774,-10.2787 c 0.59559,-1.18067 0.76436,-3.46685 0.76436,-10.35406 0,-7.51363 -0.13447,-9.08495 -0.89685,-10.48034 l -0.89686,-1.64149 H 272.1041 242.21894 l -1.4166,1.35718 c -1.3606,1.30354 -1.41659,1.55 -1.41659,6.23488 0,2.68274 0.14944,7.32011 0.33208,10.30528 0.29794,4.86935 0.44079,5.47174 1.38896,5.85701 0.58128,0.2362 14.57726,0.3861 31.10217,0.33311 l 30.04529,-0.0963 z"
       style="opacity:0;fill:#000000;stroke:#00ff00;stroke-width:1.07856;stroke-linecap:square" />
    <path
       transform="scale(0.26458333)"
       id="path2120"
       d="m 211.10147,285.23851 v -56.82108 h 60.35662 60.35661 v 56.82108 56.82108 h -60.35661 -60.35662 z m 67.30142,25.67813 7.95495,-0.32993 v -3.20392 -3.20392 h -7.49629 c -4.12296,0 -10.54374,-0.1417 -14.2684,-0.31488 l -6.77212,-0.31487 -1.21684,2.27055 -1.21683,2.27054 1.12496,1.57987 1.12496,1.57986 6.40532,-0.002 c 3.52294,-0.001 9.98506,-0.15015 14.36029,-0.33161 z m 24.06798,-10.34867 c 0.78326,-2.24686 0.67822,-3.03222 -0.5979,-4.47032 l -1.12046,-1.26269 -29.54696,0.1585 -29.54696,0.1585 -0.87265,1.10419 c -0.87467,1.10673 -1.16295,3.6066 -0.58854,5.10349 0.2749,0.71639 3.47866,0.79892 31.01278,0.79892 h 30.7062 z m 0.54774,-10.2787 c 0.59559,-1.18067 0.76436,-3.46685 0.76436,-10.35406 0,-7.51363 -0.13447,-9.08495 -0.89685,-10.48034 l -0.89686,-1.64149 H 272.1041 242.21894 l -1.4166,1.35718 c -1.3606,1.30354 -1.41659,1.55 -1.41659,6.23488 0,2.68274 0.14944,7.32011 0.33208,10.30528 0.29794,4.86935 0.44079,5.47174 1.38896,5.85701 0.58128,0.2362 14.57726,0.3861 31.10217,0.33311 l 30.04529,-0.0963 z"
       style="opacity:0;fill:#000000;stroke:#00ff00;stroke-width:1.07856;stroke-linecap:square" />
    <path
       transform="scale(0.26458333)"
       id="path2122"
       d="m 211.10147,285.23851 v -56.82108 h 60.35662 60.35661 v 56.82108 56.82108 h -60.35661 -60.35662 z m 67.30142,25.67813 7.95495,-0.32993 v -3.20392 -3.20392 h -7.49629 c -4.12296,0 -10.54374,-0.1417 -14.2684,-0.31488 l -6.77212,-0.31487 -1.21684,2.27055 -1.21683,2.27054 1.12496,1.57987 1.12496,1.57986 6.40532,-0.002 c 3.52294,-0.001 9.98506,-0.15015 14.36029,-0.33161 z m 24.06798,-10.34867 c 0.78326,-2.24686 0.67822,-3.03222 -0.5979,-4.47032 l -1.12046,-1.26269 -29.54696,0.1585 -29.54696,0.1585 -0.87265,1.10419 c -0.87467,1.10673 -1.16295,3.6066 -0.58854,5.10349 0.2749,0.71639 3.47866,0.79892 31.01278,0.79892 h 30.7062 z m 0.54774,-10.2787 c 0.59559,-1.18067 0.76436,-3.46685 0.76436,-10.35406 0,-7.51363 -0.13447,-9.08495 -0.89685,-10.48034 l -0.89686,-1.64149 H 272.1041 242.21894 l -1.4166,1.35718 c -1.3606,1.30354 -1.41659,1.55 -1.41659,6.23488 0,2.68274 0.14944,7.32011 0.33208,10.30528 0.29794,4.86935 0.44079,5.47174 1.38896,5.85701 0.58128,0.2362 14.57726,0.3861 31.10217,0.33311 l 30.04529,-0.0963 z"
       style="opacity:0;fill:#000000;stroke:#00ff00;stroke-width:1.07856;stroke-linecap:square" />
    <path
       transform="scale(0.26458333)"
       id="path2124"
       d="m 211.10147,285.23851 v -56.82108 h 60.35662 60.35661 v 56.82108 56.82108 h -60.35661 -60.35662 z m 67.30142,25.67813 7.95495,-0.32993 v -3.20392 -3.20392 h -7.49629 c -4.12296,0 -10.54374,-0.1417 -14.2684,-0.31488 l -6.77212,-0.31487 -1.21684,2.27055 -1.21683,2.27054 1.12496,1.57987 1.12496,1.57986 6.40532,-0.002 c 3.52294,-0.001 9.98506,-0.15015 14.36029,-0.33161 z m 24.06798,-10.34867 c 0.78326,-2.24686 0.67822,-3.03222 -0.5979,-4.47032 l -1.12046,-1.26269 -29.54696,0.1585 -29.54696,0.1585 -0.87265,1.10419 c -0.87467,1.10673 -1.16295,3.6066 -0.58854,5.10349 0.2749,0.71639 3.47866,0.79892 31.01278,0.79892 h 30.7062 z m 0.54774,-10.2787 c 0.59559,-1.18067 0.76436,-3.46685 0.76436,-10.35406 0,-7.51363 -0.13447,-9.08495 -0.89685,-10.48034 l -0.89686,-1.64149 H 272.1041 242.21894 l -1.4166,1.35718 c -1.3606,1.30354 -1.41659,1.55 -1.41659,6.23488 0,2.68274 0.14944,7.32011 0.33208,10.30528 0.29794,4.86935 0.44079,5.47174 1.38896,5.85701 0.58128,0.2362 14.57726,0.3861 31.10217,0.33311 l 30.04529,-0.0963 z"
       style="opacity:0;fill:#000000;stroke:#00ff00;stroke-width:1.07856;stroke-linecap:square" />
    <path
       transform="scale(0.26458333)"
       id="path2126"
       d="m 211.10147,285.23851 v -56.82108 h 60.35662 60.35661 v 56.82108 56.82108 h -60.35661 -60.35662 z m 67.30142,25.67813 7.95495,-0.32993 v -3.20392 -3.20392 h -7.49629 c -4.12296,0 -10.54374,-0.1417 -14.2684,-0.31488 l -6.77212,-0.31487 -1.21684,2.27055 -1.21683,2.27054 1.12496,1.57987 1.12496,1.57986 6.40532,-0.002 c 3.52294,-0.001 9.98506,-0.15015 14.36029,-0.33161 z m 24.06798,-10.34867 c 0.78326,-2.24686 0.67822,-3.03222 -0.5979,-4.47032 l -1.12046,-1.26269 -29.54696,0.1585 -29.54696,0.1585 -0.87265,1.10419 c -0.87467,1.10673 -1.16295,3.6066 -0.58854,5.10349 0.2749,0.71639 3.47866,0.79892 31.01278,0.79892 h 30.7062 z m 0.54774,-10.2787 c 0.59559,-1.18067 0.76436,-3.46685 0.76436,-10.35406 0,-7.51363 -0.13447,-9.08495 -0.89685,-10.48034 l -0.89686,-1.64149 H 272.1041 242.21894 l -1.4166,1.35718 c -1.3606,1.30354 -1.41659,1.55 -1.41659,6.23488 0,2.68274 0.14944,7.32011 0.33208,10.30528 0.29794,4.86935 0.44079,5.47174 1.38896,5.85701 0.58128,0.2362 14.57726,0.3861 31.10217,0.33311 l 30.04529,-0.0963 z"
       style="opacity:0;fill:#000000;stroke:#00ff00;stroke-width:1.07856;stroke-linecap:square" />
    <path
       transform="scale(0.26458333)"
       id="path2128"
       d="m 211.10147,285.23851 v -56.82108 h 60.35662 60.35661 v 56.82108 56.82108 h -60.35661 -60.35662 z m 67.30142,25.67813 7.95495,-0.32993 v -3.20392 -3.20392 h -7.49629 c -4.12296,0 -10.54374,-0.1417 -14.2684,-0.31488 l -6.77212,-0.31487 -1.21684,2.27055 -1.21683,2.27054 1.12496,1.57987 1.12496,1.57986 6.40532,-0.002 c 3.52294,-0.001 9.98506,-0.15015 14.36029,-0.33161 z m 24.06798,-10.34867 c 0.78326,-2.24686 0.67822,-3.03222 -0.5979,-4.47032 l -1.12046,-1.26269 -29.54696,0.1585 -29.54696,0.1585 -0.87265,1.10419 c -0.87467,1.10673 -1.16295,3.6066 -0.58854,5.10349 0.2749,0.71639 3.47866,0.79892 31.01278,0.79892 h 30.7062 z m 0.54774,-10.2787 c 0.59559,-1.18067 0.76436,-3.46685 0.76436,-10.35406 0,-7.51363 -0.13447,-9.08495 -0.89685,-10.48034 l -0.89686,-1.64149 H 272.1041 242.21894 l -1.4166,1.35718 c -1.3606,1.30354 -1.41659,1.55 -1.41659,6.23488 0,2.68274 0.14944,7.32011 0.33208,10.30528 0.29794,4.86935 0.44079,5.47174 1.38896,5.85701 0.58128,0.2362 14.57726,0.3861 31.10217,0.33311 l 30.04529,-0.0963 z"
       style="opacity:0;fill:#000000;stroke:#00ff00;stroke-width:1.07856;stroke-linecap:square" />
    <path
       transform="scale(0.26458333)"
       id="path2130"
       d="m 211.10147,285.23851 v -56.82108 h 60.35662 60.35661 v 56.82108 56.82108 h -60.35661 -60.35662 z m 67.30142,25.67813 7.95495,-0.32993 v -3.20392 -3.20392 h -7.49629 c -4.12296,0 -10.54374,-0.1417 -14.2684,-0.31488 l -6.77212,-0.31487 -1.21684,2.27055 -1.21683,2.27054 1.12496,1.57987 1.12496,1.57986 6.40532,-0.002 c 3.52294,-0.001 9.98506,-0.15015 14.36029,-0.33161 z m 24.06798,-10.34867 c 0.78326,-2.24686 0.67822,-3.03222 -0.5979,-4.47032 l -1.12046,-1.26269 -29.54696,0.1585 -29.54696,0.1585 -0.87265,1.10419 c -0.87467,1.10673 -1.16295,3.6066 -0.58854,5.10349 0.2749,0.71639 3.47866,0.79892 31.01278,0.79892 h 30.7062 z m 0.54774,-10.2787 c 0.59559,-1.18067 0.76436,-3.46685 0.76436,-10.35406 0,-7.51363 -0.13447,-9.08495 -0.89685,-10.48034 l -0.89686,-1.64149 H 272.1041 242.21894 l -1.4166,1.35718 c -1.3606,1.30354 -1.41659,1.55 -1.41659,6.23488 0,2.68274 0.14944,7.32011 0.33208,10.30528 0.29794,4.86935 0.44079,5.47174 1.38896,5.85701 0.58128,0.2362 14.57726,0.3861 31.10217,0.33311 l 30.04529,-0.0963 z"
       style="opacity:0;fill:#000000;stroke:#00ff00;stroke-width:1.07856;stroke-linecap:square" />
    <path
       id="path2146"
       d="m 1.0984105,34.137522 c -0.09701,-0.097 -0.17638899,-7.46431 -0.17638899,-16.37177 V 1.5703723 l 0.37251699,-0.30916 0.372517,-0.30916996 17.8175875,0.095 17.817587,0.095 1.852083,0.47069 c 1.018646,0.25887 2.745052,0.90357 3.83646,1.43266 l 1.98437,0.96198 2.14405,2.12253 2.14404,2.12253 0.96083,1.9843697 c 0.52846,1.09141 1.14122,2.694 1.36169,3.56132 l 0.40085,1.57694 v 2.40237 2.40236 l -0.40085,1.57695 c -0.22047,0.86732 -0.83569,2.46727 -1.36716,3.55545 l -0.96631,1.97851 -2.01523,2.01523 -2.01523,2.01523 -2.24001,1.1043 -2.24,1.1043 -2.073796,0.39206 -2.073796,0.39207 H 18.93451 c -9.7128405,0 -17.7390855,-0.0794 -17.8360995,-0.17639 z M 35.053271,17.777452 V 2.2993223 H 18.649105 2.2449385 V 17.777452 33.255572 H 18.649105 35.053271 Z m -20.016516,6.07535 c -0.08914,-0.23231 -0.04731,-0.53715 0.09296,-0.67742 l 0.255038,-0.25503 3.418115,0.0744 3.418116,0.0744 v 0.52916 0.52917 l -3.511072,0.0739 -3.511072,0.0739 z m -4.413407,-2.35184 c -0.07968,-0.20764 0.01134,-0.50718 0.202274,-0.66564 l 0.347147,-0.2881 7.50848,0.0703 7.508481,0.0703 0.08455,0.59531 0.08455,0.59531 h -7.795302 -7.795303 z m -0.01423,-2.68293 c -0.08915,-0.23232 -0.162092,-1.41012 -0.162092,-2.61732 v -2.19493 l 0.362795,-0.30109 0.362796,-0.30109 7.64085,0.0703 7.64085,0.0703 v 2.77812 2.77813 l -7.841553,0.07 -7.841554,0.07 z m 14.919158,-2.49579 v -1.5875 h -6.879167 -6.879167 v 1.5875 1.5875 h 6.879167 6.879167 z m 14.999345,15.84913 c 2.165102,-0.70846 4.364942,-2.1733 6.240862,-4.15568 l 1.52875,-1.61551 0.93474,-1.9683 0.93474,-1.9683 0.42949,-2.18003 0.42949,-2.18004 -0.29794,-2.04419 c -0.57685,-3.95777 -2.00474,-6.7962697 -4.74338,-9.4293797 -2.26276,-2.17558 -6.470945,-4.06603 -9.051058,-4.06603 h -0.821706 v 4.87427 4.8742697 l 0.992187,0.31785 c 1.485429,0.47586 2.589311,1.41939 3.244795,2.77344 l 0.586988,1.21255 -0.112217,1.55137 -0.112216,1.55137 -0.728879,1.05178 -0.728879,1.05177 -1.107869,0.54325 c -0.609328,0.29879 -1.316228,0.60529 -1.57089,0.68111 l -0.46302,0.13786 v 3.71247 3.71247 h 0.605869 c 1.006433,0 3.55505,-0.74814 4.940837,-1.45037 l 1.304478,-0.66103 0.14401,0.23301 c 0.0792,0.12815 -0.13433,0.41539 -0.47453,0.63829 -1.226982,0.80395 -2.516405,1.22215 -5.925352,1.92176 l -0.595312,0.12217 v 0.8228 0.82279 l 1.389062,-0.17592 c 0.763985,-0.0968 2.126112,-0.4171 3.02695,-0.71187 z m 2.992322,-3.94288 c 0,-0.14552 0.11906,-0.26458 0.26458,-0.26458 0.14552,0 0.26458,0.11906 0.26458,0.26458 0,0.14552 -0.11906,0.26458 -0.26458,0.26458 -0.14552,0 -0.26458,-0.11906 -0.26458,-0.26458 z m -1.45254,-2.12098 c 0.0914,-0.1479 0.27702,-0.2004 0.41249,-0.11668 0.36698,0.22681 0.29856,0.38558 -0.16619,0.38558 h -0.41249 z m 0.92337,-0.72414 c 0,-0.1096 0.40242,-0.7653 0.89427,-1.45709 0.49185,-0.6918 1.16484,-1.88204 1.49553,-2.64499 l 0.60126,-1.38717 0.0226,-1.98438 0.0226,-1.98437 -0.47254,-1.36338 c -0.2599,-0.74985 -0.94306,-2.03506 -1.51815,-2.85602 -1.15409,-1.64752 -1.37489,-2.3999197 -0.44905,-1.53012 1.02139,0.95953 2.27497,3.29314 2.73301,5.0876 l 0.43886,1.71933 -0.1582,1.69411 -0.1582,1.6941 -0.78537,1.67831 c -0.82936,1.77225 -2.04225,3.53336 -2.43349,3.53336 -0.12825,0 -0.23318,-0.0897 -0.23318,-0.19929 z m -1.587498,-2.29621 c 0,-0.0871 0.386953,-0.84116 0.859898,-1.6757 l 0.85989,-1.51734 v -2.00789 -2.00788 l -0.86225,-1.67187 c -0.474241,-0.91954 -0.791929,-1.74221 -0.705971,-1.82817 0.213497,-0.2135 0.852711,0.66086 1.529291,2.09185 l 0.56293,1.19062 0.003,2.24896 0.003,2.24896 -0.81737,1.44103 c -0.70512,1.24293 -1.431708,1.99786 -1.431708,1.48743 z m -0.650158,-10.97997 c -0.08372,-0.13547 -0.03122,-0.32109 0.116676,-0.41249 l 0.268899,-0.16619 v 0.41249 c 0,0.46475 -0.158766,0.53318 -0.385575,0.16619 z m -2.399612,8.60447 0.880568,-0.83048 0.305686,-1.13523 0.305687,-1.13524 -0.294482,-0.89228 c -0.502859,-1.52368 -2.080905,-3.04202 -3.161633,-3.04202 h -0.277722 v 3.92465 c 0,2.15856 0.06643,3.99108 0.147611,4.07227 0.288025,0.28802 1.225828,-0.1426 2.094285,-0.96167 z"
       style="fill:#000000;stroke-width:0.264583" />
  </g>
</svg>
